G04 #@! TF.FileFunction,Soldermask,Top*
%FSLAX46Y46*%
G04 Gerber Fmt 4.6, Leading zero omitted, Abs format (unit mm)*
G04 Created by KiCad (PCBNEW 4.0.7-e2-6376~60~ubuntu17.10.1) date Sun Mar  4 19:18:17 2018*
%MOMM*%
%LPD*%
G01*
G04 APERTURE LIST*
%ADD10C,0.100000*%
%ADD11R,1.598880X1.098500*%
%ADD12R,1.098500X1.598880*%
%ADD13R,2.100000X2.100000*%
%ADD14O,2.100000X2.100000*%
G04 APERTURE END LIST*
D10*
D11*
X141003020Y-101554280D03*
X141003020Y-90556080D03*
D12*
X143553180Y-105003600D03*
X144653000Y-105003600D03*
X145752820Y-105003600D03*
X146852640Y-105003600D03*
X147952460Y-105003600D03*
X149049740Y-105003600D03*
X150149560Y-105003600D03*
X151249380Y-105003600D03*
X152349200Y-105003600D03*
X153449020Y-105003600D03*
X154548840Y-105003600D03*
D11*
X155999180Y-102654100D03*
X155999180Y-101554280D03*
X155999180Y-100454460D03*
X155999180Y-99354640D03*
X155999180Y-98254820D03*
X155999180Y-97155000D03*
X155999180Y-93855540D03*
X155999180Y-92755720D03*
X155999180Y-91655900D03*
X155999180Y-90556080D03*
X141003020Y-91655900D03*
X141003020Y-92755720D03*
X141003020Y-93855540D03*
X141003020Y-94955360D03*
X141003020Y-96055180D03*
X141003020Y-97155000D03*
X141003020Y-98254820D03*
X141003020Y-99354640D03*
X141003020Y-100454460D03*
D12*
X142453360Y-105003600D03*
D11*
X155999180Y-94955360D03*
X155999180Y-96055180D03*
X141003020Y-102654100D03*
D13*
X137160000Y-86360000D03*
D14*
X137160000Y-88900000D03*
X137160000Y-91440000D03*
X137160000Y-93980000D03*
X137160000Y-96520000D03*
X137160000Y-99060000D03*
X137160000Y-101600000D03*
X137160000Y-104140000D03*
X137160000Y-106680000D03*
X137160000Y-109220000D03*
X137160000Y-111760000D03*
X137160000Y-114300000D03*
X137160000Y-116840000D03*
X137160000Y-119380000D03*
X137160000Y-121920000D03*
X137160000Y-124460000D03*
X137160000Y-127000000D03*
X137160000Y-129540000D03*
D13*
X160020000Y-86360000D03*
D14*
X160020000Y-88900000D03*
X160020000Y-91440000D03*
X160020000Y-93980000D03*
X160020000Y-96520000D03*
X160020000Y-99060000D03*
X160020000Y-101600000D03*
X160020000Y-104140000D03*
X160020000Y-106680000D03*
X160020000Y-109220000D03*
X160020000Y-111760000D03*
X160020000Y-114300000D03*
X160020000Y-116840000D03*
X160020000Y-119380000D03*
X160020000Y-121920000D03*
X160020000Y-124460000D03*
X160020000Y-127000000D03*
X160020000Y-129540000D03*
M02*
